# xmcd
#
# Track frame offsets: 
#        150
#        7925
#        30525
#        42287
#        57162
#        66825
#        80950
#        91452
#        102515
#        118025
#
# Disc length: 1701 seconds
#
# Revision: 2
# Processed by: cddbd v1.5.2PL0 Copyright (c) Steve Scherf et al.
# Submitted via: ExactAudioCopy v0.95b4
#
DISCID=8006a30a
DTITLE=Assorted - Down Home Country Christmas
DYEAR=1992
DGENRE=holiday
TTITLE0=Ray Price - Jingle Bells
TTITLE1=Johnny Cash - The Christmas Spirit
TTITLE2=Jim Nabors - O' Come, All Ye Faithful
TTITLE3=Jimmy Dean - Have Yourself A Merry Little Christmas
TTITLE4=Lynn Anderson - Soon It Will Be Christmas Day
TTITLE5=Marty Robbins - Hark! The Herald Angels Sing
TTITLE6=Tanya Tucker - Silver Bells
TTITLE7=Charlie Rich - God Rest Ye Merry Gentlemen
TTITLE8=Jody Miller - What Child Is This
TTITLE9=Chuck Wagon Gang - Joy To The World
EXTD=
EXTT0=
EXTT1=
EXTT2=
EXTT3=
EXTT4=
EXTT5=
EXTT6=
EXTT7=
EXTT8=
EXTT9=
PLAYORDER=
